Coordinates
version=1
nRows=8
nColumns=33
inDegrees=yes

Units are S.I. units (second, meters, Newtons, ...)
Angles are in degrees.

endheader
time	ground_thorax_rot_x	ground_thorax_rot_y	ground_thorax_rot_z	ground_thorax_tx	ground_thorax_ty	ground_thorax_tz	clav_prot_r	clav_elev_r	scapula_abduction_r	scapula_elevation_r	scapula_upward_rot_r	scapula_winging_r	shoulder_elv_r	plane_of_elev_r	axial_rot_r	elbow_flexion_r	pro_sup_r	wrist_flex_r	wrist_dev_r	clav_prot_l	clav_elev_l	scapula_abduction_l	scapula_elevation_l	scapula_upward_rot_l	scapula_winging_l	shoulder_elv_l	plane_of_elev_l	axial_rot_l	elbow_flexion_l	pro_sup_l	wrist_flex_l	wrist_dev_l
      8.20000000	     37.91787802	      3.82327361	     12.66082576	   -211.57555173	    874.71300652	     -5.63728714	     13.52840841	     36.62176545	     36.11180437	     45.00000000	    -44.81961489	    633.76622640	    788.20611391	     32.32812338	     68.52549649	   1095.81191034	     48.98955226	     19.12545281	      5.95204507	     12.39404400	    -45.00000000	    -36.87557721	     45.00000000	    -45.00000000	  -2419.49797161	  -4603.01282052	     16.18253194	    -63.69385429	   1092.31691605	     43.37383592	      7.20886871	    -23.00313728
      8.21000000	     37.94461946	      3.76655417	     12.52907837	   -209.86865599	    876.70612905	     -5.64772854	     13.59520986	     36.73254501	     36.33514175	     45.00000000	    -44.38182343	    633.61685406	    788.35612094	     32.35152586	     68.34179334	   1096.05908791	     50.97614927	     19.13145387	      5.76280788	     12.41238184	    -45.00000000	    -37.05819028	     45.00000000	    -45.00000000	  -2419.56025215	  -4602.84020111	     16.41725756	    -62.91823270	   1092.43850408	     44.07776982	      7.08628216	    -23.06813321
      8.22000000	     38.05044225	      3.63640719	     12.22874202	   -208.06875108	    878.79993888	     -5.66790900	     13.35814999	     36.86143134	     36.54742620	     45.00000000	    -43.73708515	    633.40766881	    788.46619034	     32.41074621	     68.26850634	   1096.26688207	     52.70952159	     19.18745134	      5.67589599	     12.52832229	    -45.00000000	    -37.27416150	     45.00000000	    -45.00000000	  -2419.63808846	  -4602.79141365	     16.79674089	    -62.09949077	   1092.51657998	     44.61175875	      6.92038242	    -23.04938601
      8.23000000	     38.11292365	      3.52776647	     12.00450741	   -206.17366631	    880.97188468	     -5.69692453	     13.21108508	     36.94199120	     36.76781059	     45.00000000	    -43.09873428	    633.21952294	    788.60116776	     32.45355300	     68.09437511	   1096.48108191	     54.35927946	     19.22965023	      5.55767871	     12.60529917	    -45.00000000	    -37.43741741	     45.00000000	    -45.00000000	  -2419.66754781	  -4602.64715723	     17.16272893	    -61.25211571	   1092.59476627	     45.07059497	      6.76906873	    -23.04243719
      8.24000000	     38.17261864	      3.58508529	     11.93532912	   -204.18148740	    883.19458507	     -5.73387943	     13.66839073	     37.09990478	     37.09196091	     45.00000000	    -42.76172704	    633.01901810	    788.75080336	     32.41802533	     67.95322206	   1096.68821518	     56.30341919	     19.16409491	      5.29597745	     12.44953766	    -45.00000000	    -37.67532675	     45.00000000	    -45.00000000	  -2419.79492509	  -4602.41826889	     17.34059019	    -60.15424310	   1092.74733691	     45.56254001	      6.74370787	    -23.20606065
      8.25000000	     38.27522606	      3.38431281	     11.60865165	   -202.09037421	    885.43652220	     -5.77804876	     12.93125556	     37.11629691	     37.22180703	     45.00000000	    -41.80127575	    632.91158303	    788.94146012	     32.42782469	     67.52684823	   1096.91746830	     57.78447346	     19.30427898	      5.29476237	     12.69857307	    -45.00000000	    -37.88669390	     45.00000000	    -45.00000000	  -2419.79237565	  -4602.33282354	     17.85380094	    -59.41757738	   1092.79444854	     45.84346469	      6.54120230	    -23.10069269
      8.26000000	     38.31373436	      3.53129083	     11.58636772	   -199.89737930	    887.66536080	     -5.82828746	     13.73091277	     37.47280323	     37.53864663	     45.00000000	    -41.40800786	    632.54265310	    788.93081505	     32.49539026	     67.67894916	   1097.05647463	     59.59479738	     19.16249293	      5.00104182	     12.42685785	    -45.00000000	    -38.18701317	     45.00000000	    -44.94296281	  -2419.96337674	  -4602.05981705	     17.97184424	    -58.22551444	   1092.87462489	     46.12857504	      6.56706886	    -23.28219172
      8.27000000	     38.41854532	      3.26420275	     11.16663035	   -197.60065075	    889.84524767	     -5.88287462	     13.37702722	     37.52195246	     37.76275823	     45.00000000	    -40.65946401	    632.43431332	    789.13598475	     32.60951337	     67.17205874	   1097.24105846	     61.16016063	     19.22301121	      4.92274842	     12.57979555	    -45.00000000	    -38.58590985	     45.00000000	    -44.10769999	  -2419.95561634	  -4601.98785555	     18.21796179	    -57.33568576	   1092.86566038	     46.26496536	      6.54875541	    -23.32868205
